<svg width="20" height="20" viewBox="0 0 20 20" fill="none" xmlns="http://www.w3.org/2000/svg">
<path d="M17.1667 9.54079H19.0833C19.0833 4.62454 15.3717 0.916748 10.4488 0.916748V2.83341C14.3415 2.83341 17.1667 5.65379 17.1667 9.54079Z" fill="#BDBDBD"/>
<path d="M10.4584 6.66665C12.4737 6.66665 13.3334 7.52628 13.3334 9.54165H15.25C15.25 6.45103 13.549 4.74999 10.4584 4.74999V6.66665ZM13.7378 11.8829C13.5536 11.7155 13.3116 11.6262 13.0629 11.6339C12.8142 11.6416 12.5782 11.7456 12.4047 11.9241L10.1114 14.2825C9.55944 14.1771 8.44969 13.8312 7.30736 12.6917C6.16503 11.5484 5.81907 10.4358 5.71653 9.88761L8.07307 7.59336C8.25171 7.42003 8.35591 7.18398 8.3636 6.93519C8.37129 6.68639 8.28187 6.44436 8.11428 6.26032L4.57323 2.36661C4.40557 2.18199 4.17254 2.07001 3.92363 2.05444C3.67473 2.03888 3.42956 2.12095 3.24019 2.28324L1.16061 4.0667C0.994924 4.23298 0.896032 4.45429 0.882693 4.68865C0.868318 4.92824 0.594234 10.6035 4.9949 15.0061C8.83398 18.8442 13.6429 19.125 14.9673 19.125C15.1609 19.125 15.2797 19.1192 15.3114 19.1173C15.5457 19.1042 15.7669 19.0049 15.9324 18.8384L17.7149 16.7579C17.8773 16.5687 17.9595 16.3236 17.9441 16.0747C17.9287 15.8258 17.8169 15.5927 17.6324 15.4249L13.7378 11.8829Z" fill="#BDBDBD"/>
</svg>
